<svg width="21" height="21" viewBox="0 0 21 21" fill="none" xmlns="http://www.w3.org/2000/svg">
<path d="M16.1181 14.9625L20.4011 19.2445L18.9861 20.6595L14.7041 16.3765C13.1109 17.6537 11.1291 18.3484 9.08713 18.3455C4.11913 18.3455 0.0871277 14.3135 0.0871277 9.34546C0.0871277 4.37746 4.11913 0.345459 9.08713 0.345459C14.0551 0.345459 18.0871 4.37746 18.0871 9.34546C18.09 11.3875 17.3953 13.3692 16.1181 14.9625ZM14.1121 14.2205C15.3812 12.9153 16.09 11.1659 16.0871 9.34546C16.0871 5.47746 12.9541 2.34546 9.08713 2.34546C5.21913 2.34546 2.08713 5.47746 2.08713 9.34546C2.08713 13.2125 5.21913 16.3455 9.08713 16.3455C10.9076 16.3483 12.657 15.6396 13.9621 14.3705L14.1121 14.2205Z" fill="#F4F4F4"/>
</svg>
